<svg width="107" height="34" viewBox="0 0 107 34" fill="none" xmlns="http://www.w3.org/2000/svg">
<path d="M21.684 11.528C21.684 13.0827 21.3173 14.5493 20.584 15.928C19.8507 17.3067 18.6773 18.436 17.064 19.316C15.4507 20.1667 13.3827 20.592 10.86 20.592H5.316V33H0.3V2.42H10.86C13.2067 2.42 15.1867 2.83066 16.8 3.652C18.4427 4.444 19.66 5.52933 20.452 6.908C21.2733 8.28667 21.684 9.82667 21.684 11.528ZM10.86 16.5C12.7667 16.5 14.1893 16.0747 15.128 15.224C16.0667 14.344 16.536 13.112 16.536 11.528C16.536 8.184 14.644 6.512 10.86 6.512H5.316V16.5H10.86ZM36.984 33.396C34.696 33.396 32.628 32.8827 30.78 31.856C28.932 30.8 27.48 29.3333 26.424 27.456C25.368 25.5493 24.84 23.3493 24.84 20.856C24.84 18.392 25.3826 16.2067 26.468 14.3C27.5533 12.3933 29.0346 10.9267 30.912 9.9C32.7893 8.87333 34.8866 8.36 37.204 8.36C39.5213 8.36 41.6186 8.87333 43.496 9.9C45.3733 10.9267 46.8546 12.3933 47.94 14.3C49.0253 16.2067 49.568 18.392 49.568 20.856C49.568 23.32 49.0106 25.5053 47.896 27.412C46.7813 29.3187 45.256 30.8 43.32 31.856C41.4133 32.8827 39.3013 33.396 36.984 33.396ZM36.984 29.04C38.2746 29.04 39.4773 28.732 40.592 28.116C41.736 27.5 42.66 26.576 43.364 25.344C44.068 24.112 44.42 22.616 44.42 20.856C44.42 19.096 44.0826 17.6147 43.408 16.412C42.7333 15.18 41.8386 14.256 40.724 13.64C39.6093 13.024 38.4066 12.716 37.116 12.716C35.8253 12.716 34.6226 13.024 33.508 13.64C32.4226 14.256 31.5573 15.18 30.912 16.412C30.2666 17.6147 29.944 19.096 29.944 20.856C29.944 23.4667 30.604 25.4907 31.924 26.928C33.2733 28.336 34.96 29.04 36.984 29.04ZM59.5426 0.44V33H54.5266V0.44H59.5426ZM76.6441 33.396C74.3561 33.396 72.2881 32.8827 70.4401 31.856C68.5921 30.8 67.1401 29.3333 66.0841 27.456C65.0281 25.5493 64.5001 23.3493 64.5001 20.856C64.5001 18.392 65.0428 16.2067 66.1281 14.3C67.2135 12.3933 68.6948 10.9267 70.5721 9.9C72.4495 8.87333 74.5468 8.36 76.8641 8.36C79.1815 8.36 81.2788 8.87333 83.1561 9.9C85.0335 10.9267 86.5148 12.3933 87.6001 14.3C88.6855 16.2067 89.2281 18.392 89.2281 20.856C89.2281 23.32 88.6708 25.5053 87.5561 27.412C86.4415 29.3187 84.9161 30.8 82.9801 31.856C81.0735 32.8827 78.9615 33.396 76.6441 33.396ZM76.6441 29.04C77.9348 29.04 79.1375 28.732 80.2521 28.116C81.3961 27.5 82.3201 26.576 83.0241 25.344C83.7281 24.112 84.0801 22.616 84.0801 20.856C84.0801 19.096 83.7428 17.6147 83.0681 16.412C82.3935 15.18 81.4988 14.256 80.3841 13.64C79.2695 13.024 78.0668 12.716 76.7761 12.716C75.4855 12.716 74.2828 13.024 73.1681 13.64C72.0828 14.256 71.2175 15.18 70.5721 16.412C69.9268 17.6147 69.6041 19.096 69.6041 20.856C69.6041 23.4667 70.2641 25.4907 71.5841 26.928C72.9335 28.336 74.6201 29.04 76.6441 29.04ZM99.2027 12.276C99.9361 11.044 100.904 10.0907 102.107 9.416C103.339 8.712 104.791 8.36 106.463 8.36V13.552H105.187C103.221 13.552 101.725 14.0507 100.699 15.048C99.7014 16.0453 99.2027 17.776 99.2027 20.24V33H94.1867V8.756H99.2027V12.276Z" fill="black"/>
</svg>
