<svg width="53" height="17" viewBox="0 0 53 17" fill="none" xmlns="http://www.w3.org/2000/svg">
<g clip-path="url(#clip0_5009_831)">
<path fill-rule="evenodd" clip-rule="evenodd" d="M8.128 0.5C3.6416 0.5 0 4.0712 0 8.4712C0 12.8808 3.6416 16.4432 8.128 16.4432C12.624 16.4432 16.256 12.8712 16.256 8.4712C16.2672 4.0712 12.624 0.5 8.128 0.5ZM11.8576 12.0048C11.7858 12.1183 11.6721 12.199 11.5412 12.2292C11.4103 12.2595 11.2728 12.2369 11.1584 12.1664C9.2448 11.024 6.8464 10.7664 4.0104 11.3952C3.7384 11.452 3.4664 11.2912 3.4088 11.024C3.39446 10.9604 3.39289 10.8945 3.4042 10.8303C3.4155 10.766 3.43945 10.7047 3.47464 10.6497C3.50984 10.5948 3.5556 10.5474 3.60925 10.5103C3.6629 10.4732 3.72339 10.4471 3.7872 10.4336C6.8848 9.7376 9.5464 10.0336 11.6832 11.3192C11.9352 11.4616 12.0128 11.7672 11.8576 12.0048ZM12.8576 9.8336C12.767 9.97457 12.6255 10.0751 12.4625 10.1141C12.2996 10.1532 12.1278 10.1278 11.9832 10.0432C9.7992 8.7192 6.468 8.3384 3.8848 9.1096C3.5448 9.2048 3.1952 9.024 3.0976 8.7C3.07375 8.62132 3.06594 8.53866 3.07462 8.45691C3.0833 8.37516 3.1083 8.29599 3.14814 8.22407C3.18797 8.15216 3.24184 8.08897 3.30653 8.03825C3.37123 7.98753 3.44546 7.95031 3.5248 7.9288C6.4768 7.052 10.1488 7.4712 12.6632 8.9856C12.9448 9.1568 13.0424 9.5376 12.8576 9.8336ZM12.9456 7.5664C10.3224 6.044 6.0008 5.9 3.496 6.644C3.30397 6.70204 3.09686 6.68263 2.91895 6.58994C2.74105 6.49725 2.60647 6.33863 2.544 6.148C2.4184 5.7576 2.6512 5.3392 3.0496 5.2152C5.924 4.3576 10.7016 4.5296 13.712 6.2816C13.797 6.3305 13.8713 6.39589 13.9307 6.47392C13.99 6.55195 14.0332 6.64105 14.0576 6.73599C14.0821 6.83094 14.0873 6.9298 14.073 7.0268C14.0587 7.12379 14.0252 7.21694 13.9744 7.3008C13.9247 7.38638 13.8586 7.46124 13.7798 7.52104C13.701 7.58085 13.6111 7.62441 13.5153 7.64919C13.4195 7.67397 13.3197 7.67948 13.2218 7.66541C13.1239 7.65134 13.0297 7.61795 12.9448 7.5672L12.9456 7.5664ZM22.1216 7.8616C20.7136 7.5384 20.4712 7.3 20.4712 6.8136C20.4712 6.3576 20.908 6.052 21.5592 6.052C22.1896 6.052 22.8208 6.2904 23.4816 6.7664C23.5008 6.7856 23.5296 6.7856 23.5496 6.7856C23.5784 6.7856 23.5976 6.7664 23.608 6.748L24.2976 5.7952C24.3044 5.78575 24.3093 5.77504 24.312 5.76369C24.3147 5.75234 24.3151 5.74057 24.3133 5.72906C24.3114 5.71754 24.3073 5.70651 24.3012 5.69658C24.2951 5.68665 24.2871 5.67803 24.2776 5.6712C23.4912 5.052 22.6072 4.7568 21.5784 4.7568C20.0632 4.7568 19.0048 5.6528 19.0048 6.9288C19.0048 8.3 19.9168 8.7856 21.5008 9.1568C22.8408 9.4616 23.0736 9.7192 23.0736 10.1664C23.0736 10.6712 22.6176 10.9856 21.8792 10.9856C21.0632 10.9856 20.3936 10.7192 19.6456 10.0816C19.6264 10.0616 19.5976 10.0616 19.5776 10.0616C19.5488 10.0616 19.5296 10.0712 19.5192 10.0904L18.752 10.9864C18.7232 11.024 18.7232 11.0808 18.7616 11.1096C19.6168 11.864 20.7196 12.2775 21.86 12.2712C23.4912 12.2712 24.5496 11.3952 24.5496 10.0432C24.5304 8.9 23.8408 8.2712 22.1216 7.8616ZM28.2304 6.5C27.5216 6.5 26.9384 6.776 26.4624 7.3384V6.7096C26.4623 6.69825 26.46 6.68704 26.4555 6.6766C26.4511 6.66615 26.4446 6.65669 26.4365 6.64874C26.4284 6.64079 26.4188 6.63451 26.4083 6.63027C26.3978 6.62602 26.3865 6.62389 26.3752 6.624H25.1224C25.0744 6.624 25.0352 6.6616 25.0352 6.7096V13.7192C25.0352 13.7672 25.0744 13.8048 25.1232 13.8048H26.3752C26.4232 13.8048 26.4632 13.7664 26.4632 13.7192V11.5096C26.9384 12.0336 27.5216 12.2904 28.2304 12.2904C29.5416 12.2904 30.8816 11.3 30.8816 9.3952C30.8816 7.5 29.5416 6.5 28.2304 6.5ZM29.4144 9.3952C29.4144 10.3664 28.8032 11.0336 27.9392 11.0336C27.0752 11.0336 26.4336 10.3288 26.4336 9.3952C26.4336 8.4616 27.084 7.7568 27.9392 7.7568C28.7936 7.7568 29.4152 8.4432 29.4152 9.3952H29.4144ZM34.2896 6.5C32.6 6.5 31.2696 7.7856 31.2696 9.4144C31.2696 11.0336 32.5904 12.3 34.2704 12.3C35.9696 12.3 37.3 11.024 37.3 9.3952C37.3 7.776 35.98 6.5 34.2896 6.5ZM34.2896 11.052C33.3872 11.052 32.7072 10.3384 32.7072 9.4048C32.7072 8.4616 33.3672 7.776 34.2704 7.776C35.1744 7.776 35.8624 8.4904 35.8624 9.4336C35.8624 10.3664 35.2024 11.052 34.2896 11.052ZM40.9224 6.6144H39.544V5.2336C39.5439 5.22219 39.5415 5.2109 39.537 5.20041C39.5326 5.18991 39.526 5.18041 39.5178 5.17245C39.5097 5.16449 39.5 5.15823 39.4894 5.15404C39.4788 5.14984 39.4674 5.14779 39.456 5.148H38.2032C38.1552 5.148 38.116 5.1856 38.116 5.2336V6.624H37.5144C37.4656 6.624 37.4264 6.6616 37.4264 6.7096V7.7664C37.4264 7.8144 37.4656 7.852 37.5144 7.852H38.116V10.5952C38.116 11.7 38.6792 12.2616 39.7864 12.2616C40.2328 12.2616 40.612 12.1664 40.9616 11.976C40.9904 11.9568 41.0096 11.928 41.0096 11.9V10.8904C41.0096 10.8616 40.9904 10.8336 40.9712 10.8144C40.9585 10.8049 40.9431 10.7998 40.9272 10.7998C40.9113 10.7998 40.8959 10.8049 40.8832 10.8144C40.6552 10.9314 40.4018 10.9902 40.1456 10.9856C39.7376 10.9856 39.5632 10.8048 39.5632 10.4048V7.8616H40.9424C40.9904 7.8616 41.0296 7.824 41.0296 7.776V6.7096C41.0104 6.6616 40.9712 6.6136 40.9224 6.6136V6.6144ZM45.7392 6.624V6.452C45.7392 5.948 45.9336 5.7288 46.3712 5.7288C46.6328 5.7288 46.8464 5.7768 47.0792 5.852C47.1088 5.8616 47.1376 5.852 47.1672 5.8432C47.1864 5.824 47.2056 5.7952 47.2056 5.7664V4.7288C47.2049 4.70914 47.1979 4.69021 47.1857 4.6748C47.1735 4.6594 47.1566 4.64832 47.1376 4.6432C46.7978 4.54153 46.4442 4.49323 46.0896 4.5C44.924 4.5 44.312 5.1384 44.312 6.3568V6.6144H43.7096C43.6616 6.6144 43.6128 6.652 43.6128 6.7V7.7664C43.6128 7.8144 43.6512 7.852 43.7096 7.852H44.312V12.0808C44.312 12.1288 44.3504 12.1664 44.3992 12.1664H45.652C45.7 12.1664 45.74 12.1288 45.74 12.0808V7.8616H46.9144L48.7112 12.0904C48.5072 12.5384 48.3032 12.624 48.0312 12.624C47.8072 12.624 47.5752 12.5568 47.3416 12.4336C47.3224 12.424 47.2936 12.424 47.264 12.424C47.2448 12.4336 47.216 12.452 47.2056 12.472L46.7784 13.3856C46.7592 13.4336 46.7784 13.4816 46.8176 13.5C47.2272 13.727 47.6894 13.8421 48.1576 13.8336C49.0896 13.8336 49.5944 13.4048 50.0512 12.2712L52.236 6.748C52.2417 6.73394 52.2438 6.71867 52.2422 6.70358C52.2405 6.6885 52.2351 6.67407 52.2264 6.6616C52.2177 6.64926 52.206 6.63933 52.1925 6.63275C52.1789 6.62617 52.1639 6.62316 52.1488 6.624H50.8376C50.7992 6.624 50.76 6.652 50.7496 6.6808L49.4104 10.4328L47.9728 6.6808C47.9632 6.6432 47.9248 6.624 47.8848 6.624H45.7392ZM42.952 6.6144H41.6992C41.6512 6.6144 41.612 6.652 41.612 6.7V12.0808C41.612 12.1288 41.6512 12.1664 41.7 12.1664H42.952C43.0008 12.1664 43.04 12.1288 43.04 12.0808V6.7096C43.04 6.6616 43.0008 6.6136 42.952 6.6136V6.6144ZM42.3208 4.1664C41.8256 4.1664 41.4176 4.5664 41.4176 5.052C41.4176 5.5384 41.8256 5.9384 42.3216 5.9384C42.816 5.9384 43.224 5.5384 43.224 5.052C43.224 4.5664 42.8264 4.1664 42.3208 4.1664Z" fill="black"/>
</g>
<defs>
<clipPath id="clip0_5009_831">
<rect width="52.8" height="16" fill="white" transform="translate(0 0.5)"/>
</clipPath>
</defs>
</svg>
